<?xml version="1.0" encoding="UTF-8" standalone="no"?>
<!-- Created with Inkscape (http://www.inkscape.org/) -->

<svg
   xmlns:dc="http://purl.org/dc/elements/1.1/"
   xmlns:cc="http://creativecommons.org/ns#"
   xmlns:rdf="http://www.w3.org/1999/02/22-rdf-syntax-ns#"
   xmlns:svg="http://www.w3.org/2000/svg"
   xmlns="http://www.w3.org/2000/svg"
   xmlns:sodipodi="http://sodipodi.sourceforge.net/DTD/sodipodi-0.dtd"
   xmlns:inkscape="http://www.inkscape.org/namespaces/inkscape"
   width="150"
   height="60"
   viewBox="0 0 150 60.000001"
   id="svg3392"
   version="1.1"
   inkscape:version="0.91 r13725"
   sodipodi:docname="logoD.svg">
  <defs
     id="defs3394" />
  <sodipodi:namedview
     id="base"
     pagecolor="#ffffff"
     bordercolor="#666666"
     borderopacity="1.0"
     inkscape:pageopacity="0.0"
     inkscape:pageshadow="2"
     inkscape:zoom="8.5873266"
     inkscape:cx="95.868666"
     inkscape:cy="23.571328"
     inkscape:document-units="px"
     inkscape:current-layer="layer1"
     showgrid="false"
     units="px"
     inkscape:window-width="1600"
     inkscape:window-height="837"
     inkscape:window-x="-8"
     inkscape:window-y="-8"
     inkscape:window-maximized="1" />
  <metadata
     id="metadata3397">
    <rdf:RDF>
      <cc:Work
         rdf:about="">
        <dc:format>image/svg+xml</dc:format>
        <dc:type
           rdf:resource="http://purl.org/dc/dcmitype/StillImage" />
        <dc:title></dc:title>
      </cc:Work>
    </rdf:RDF>
  </metadata>
  <g
     inkscape:label="Capa 1"
     inkscape:groupmode="layer"
     id="layer1"
     transform="translate(0,-992.36216)">
    <g
       id="g4315"
       transform="matrix(1.178706,0,0,1.5108749,-19.631289,-524.67096)"
       style="fill:#ffffff;fill-opacity:1">
      <path
         transform="translate(0,992.36216)"
         inkscape:connector-curvature="0"
         id="path4263"
         d="m 22.905057,40.501665 0,-5.997959 0.522034,-0.114658 c 0.287119,-0.06306 2.19542,-0.06301 4.240668,1.26e-4 3.203835,0.09889 3.81367,0.159686 4.405128,0.439138 0.894889,0.422818 1.959606,1.589211 2.182093,2.390474 0.09695,0.349148 0.176682,1.916144 0.177188,3.482212 0.001,3.235297 -0.103044,3.612225 -1.294832,4.688933 -1.085416,0.980609 -1.819384,1.109692 -6.309703,1.109692 l -3.922576,0 0,-5.997958 z m 7.822222,3.548609 c 0.811305,-0.470002 0.901058,-0.841118 0.903715,-3.736741 l 0.0024,-2.645338 -0.452887,-0.43205 c -0.696267,-0.664258 -1.213796,-0.782376 -3.42793,-0.782376 l -2.047856,0 0,3.942998 0,3.942998 0.699916,0.07272 c 1.369137,0.142249 3.804051,-0.06178 4.322642,-0.36221 z"
         style="fill:#ffffff;fill-opacity:1;fill-rule:evenodd;stroke:none;stroke-opacity:1" />
      <path
         transform="translate(0,992.36216)"
         inkscape:connector-curvature="0"
         id="path4265"
         d="m 38.550239,49.739402 c 0,-0.02967 0.296435,-0.737409 0.658745,-1.572755 0.362309,-0.835346 0.658744,-1.552159 0.658744,-1.592918 0,-0.04076 -0.143171,-0.07411 -0.318158,-0.07411 -0.329164,0 -0.774188,-0.54221 -1.148924,-1.399832 -0.26325,-0.602473 -2.718986,-6.637555 -2.864783,-7.040332 -0.09366,-0.258735 0.02564,-0.287919 1.166826,-0.285442 l 1.271149,0.0028 0.887486,2.344018 c 1.228051,3.243513 1.61033,4.073222 1.876692,4.073222 0.202606,0 1.905539,-3.31119 2.900889,-5.6405 l 0.334271,-0.782259 1.323342,0 c 0.727838,0 1.323341,0.03296 1.323341,0.07324 0,0.04028 -1.045871,2.319126 -2.324157,5.064098 -1.278287,2.744973 -2.513215,5.416984 -2.744284,5.937804 l -0.420127,0.946946 -1.290526,0 c -0.709789,0 -1.290526,-0.02428 -1.290526,-0.05394 z"
         style="fill:#ffffff;fill-opacity:1;fill-rule:evenodd;stroke:none;stroke-opacity:1" />
      <path
         transform="translate(0,992.36216)"
         inkscape:connector-curvature="0"
         id="path4267"
         d="m 48.211825,46.389832 c -0.150308,-0.150308 -0.134821,-7.832446 0.01625,-8.05869 0.310472,-0.464974 0.923214,-0.559856 3.609746,-0.558965 1.523126,5.05e-4 3.065755,0.08201 3.428064,0.18113 0.428432,0.117206 0.932241,0.462163 1.441004,0.986652 l 0.782259,0.80644 0,3.376612 0,3.376612 -1.139971,0 -1.139972,0 -0.054,-3.143861 c -0.06819,-3.969893 0.05359,-3.804683 -2.75459,-3.7368 l -1.910625,0.04619 -0.102491,3.046693 c -0.05637,1.675681 -0.111952,3.213438 -0.123515,3.417237 -0.01926,0.339517 -0.101462,0.370544 -0.981692,0.370544 -0.528368,0 -1.010075,-0.04941 -1.07046,-0.109791 z"
         style="fill:#ffffff;fill-opacity:1;fill-rule:evenodd;stroke:none;stroke-opacity:1" />
      <path
         transform="translate(0,992.36216)"
         inkscape:connector-curvature="0"
         id="path4269"
         d="m 60.782866,46.380606 c -0.570222,-0.106961 -0.827266,-0.351068 -1.175285,-1.116129 -0.513682,-1.129244 -0.317506,-2.483215 0.484127,-3.341367 0.450647,-0.482419 0.467863,-0.486 2.919017,-0.607254 1.356133,-0.06708 2.595386,-0.190637 2.753897,-0.274561 0.367023,-0.194322 0.387017,-1.055959 0.0277,-1.193841 -0.143274,-0.05498 -0.82878,-0.100346 -1.523347,-0.100814 -0.694566,-4.69e-4 -1.985408,-0.0487 -2.868538,-0.107182 l -1.605689,-0.106329 0,-0.880935 0,-0.880936 3.241727,0 c 3.776556,0 4.312588,0.142816 4.977697,1.326218 0.353087,0.628234 0.376636,0.862841 0.400861,3.993624 l 0.02574,3.32618 -3.623094,0.02028 c -1.992703,0.01115 -3.808367,-0.01447 -4.034811,-0.05695 z m 5.358904,-1.867902 c 0.05961,-0.09645 0.06063,-0.429944 0.0023,-0.741088 l -0.106128,-0.565716 -2.10052,0 c -2.121452,0 -2.495767,0.09562 -2.495767,0.637543 0,0.133263 0.122649,0.377822 0.272554,0.543464 0.235871,0.260636 0.544864,0.301169 2.295886,0.301169 1.253434,0 2.064575,-0.06673 2.131719,-0.175372 z"
         style="fill:#ffffff;fill-opacity:1;fill-rule:evenodd;stroke:none;stroke-opacity:1" />
      <path
         transform="translate(0,992.36216)"
         inkscape:connector-curvature="0"
         id="path4271"
         d="m 70.336911,42.670671 c 0.0012,-2.105924 0.04457,-3.986664 0.0963,-4.179422 0.158387,-0.5902 0.759629,-0.719991 3.335273,-0.719991 2.282364,0 2.482093,0.02585 3.283069,0.424999 l 0.85286,0.424998 0.538135,-0.383827 c 0.48865,-0.348531 0.712292,-0.383827 2.432026,-0.383827 1.662486,0 1.991279,0.04795 2.690948,0.392399 0.461677,0.227288 0.998718,0.670782 1.276318,1.053998 l 0.479259,0.661598 0,3.269014 0,3.269013 -1.152802,0 -1.152803,0 0,-3.117083 0,-3.117084 -0.433925,-0.341325 c -0.359908,-0.283104 -0.66732,-0.341325 -1.802209,-0.341325 -1.887107,0 -1.88102,-0.01071 -1.88102,3.30978 0,1.417762 -0.04632,2.809339 -0.102928,3.092393 -0.102049,0.510243 -0.111694,0.514644 -1.127798,0.514644 l -1.024869,0 -0.09406,-3.245047 c -0.08258,-2.848938 -0.129682,-3.271091 -0.385854,-3.458408 -0.188756,-0.138023 -0.825849,-0.213362 -1.804246,-0.213362 l -1.512456,0 -0.102929,0.514644 c -0.05661,0.283054 -0.102928,1.839338 -0.102928,3.458409 l 0,2.943764 -1.152803,0 -1.152803,0 0.0022,-3.828952 z"
         style="fill:#ffffff;fill-opacity:1;fill-rule:evenodd;stroke:none;stroke-opacity:1" />
      <path
         transform="translate(0,992.36216)"
         inkscape:connector-curvature="0"
         id="path4273"
         d="m 87.132647,42.395939 c 0,-2.257026 0.04498,-4.220908 0.09996,-4.364182 0.07673,-0.199952 0.344672,-0.260499 1.152803,-0.260499 l 1.052841,0 0,4.364183 0,4.364182 -1.152803,0 -1.152803,0 0,-4.103684 z"
         style="fill:#ffffff;fill-opacity:1;fill-rule:evenodd;stroke:none;stroke-opacity:1" />
      <path
         transform="translate(0,992.36216)"
         inkscape:connector-curvature="0"
         id="path4275"
         d="m 87.132647,35.386447 c 0,-0.826692 0.03482,-0.911375 0.413825,-1.006499 0.227603,-0.05712 0.746365,-0.054 1.152803,0.007 l 0.738978,0.110816 0,0.895683 0,0.895683 -1.152803,0 -1.152803,0 0,-0.902636 z"
         style="fill:#ffffff;fill-opacity:1;fill-rule:evenodd;stroke:none;stroke-opacity:1" />
      <path
         transform="translate(0,992.36216)"
         inkscape:connector-curvature="0"
         id="path4277"
         d="m 94.625866,46.348526 c -1.368909,-0.337014 -2.706902,-1.365826 -3.147411,-2.420112 -0.134002,-0.320712 -0.227158,-1.111863 -0.225038,-1.911198 0.0056,-2.100297 0.543935,-3.016401 2.221697,-3.780533 0.729919,-0.332439 1.137707,-0.380994 3.662215,-0.436056 l 2.840836,-0.06196 0,0.89766 0,0.89766 -1.358661,0.105765 c -0.747263,0.05817 -1.862575,0.10621 -2.47847,0.106753 -2.001317,0.0018 -2.585628,0.561498 -2.585628,2.476869 0,1.041241 0.0576,1.311619 0.345187,1.620306 0.526911,0.565574 0.889094,0.64345 3.59056,0.772039 l 2.502603,0.119124 -0.04897,0.841219 -0.04897,0.841218 -2.387949,0.02644 c -1.313372,0.01454 -2.610275,-0.02829 -2.882007,-0.09519 z"
         style="fill:#ffffff;fill-opacity:1;fill-rule:evenodd;stroke:none;stroke-opacity:1" />
      <path
         transform="translate(0,992.36216)"
         inkscape:connector-curvature="0"
         id="path4279"
         d="m 110.1157,47.945155 c -0.141,-0.201309 -0.25637,-0.451616 -0.25637,-0.556237 0,-0.104621 -0.11458,-0.285318 -0.25463,-0.401548 -0.21177,-0.175748 -0.32961,-0.151023 -0.69992,0.146856 -0.76664,0.61669 -1.06998,0.718982 -1.56923,0.529171 -0.41406,-0.157428 -0.45236,-0.241096 -0.41761,-0.912415 0.0211,-0.406501 -0.0121,-0.789444 -0.0736,-0.850984 -0.0615,-0.06154 -0.39887,-0.02591 -0.74963,0.07918 -1.56371,0.468499 -2.31047,-0.08594 -1.51324,-1.123515 0.41328,-0.537871 0.17527,-0.826333 -0.6818,-0.826333 -1.33412,0 -1.69677,-0.703962 -0.76386,-1.482791 0.61771,-0.515689 0.55522,-0.90545 -0.17076,-1.0649 -0.60914,-0.13379 -0.88801,-0.449863 -0.81741,-0.926438 0.0408,-0.275079 0.24365,-0.418364 0.83608,-0.59045 0.43024,-0.124975 0.78226,-0.322282 0.78226,-0.438461 0,-0.116179 -0.22233,-0.424237 -0.49406,-0.684573 -0.86906,-0.832611 -0.46499,-1.504413 0.78467,-1.304585 0.8568,0.137008 1.19523,-0.225486 0.78915,-0.845249 -0.57965,-0.884662 -0.0157,-1.635749 0.93345,-1.243199 0.29668,0.122701 0.72469,0.232296 0.95114,0.243544 0.36555,0.01816 0.4177,-0.05318 0.46515,-0.636204 0.0294,-0.361161 0.13111,-0.750232 0.22603,-0.864602 0.30861,-0.371853 1.04241,-0.235758 1.59953,0.296658 0.29041,0.277532 0.61637,0.475887 0.72434,0.440789 0.10798,-0.0351 0.36862,-0.373332 0.57921,-0.751633 l 0.38288,-0.687818 -0.58874,0 c -0.41353,0 -0.58874,-0.07352 -0.58874,-0.247029 0,-0.193611 0.22258,-0.24626 1.02929,-0.243472 l 1.02929,0.0036 0.45127,0.98456 c 0.2482,0.541507 0.55748,0.984559 0.68728,0.984559 0.12981,0 0.45619,-0.185272 0.7253,-0.411715 0.5253,-0.442007 1.15956,-0.533803 1.47928,-0.214092 0.10869,0.108693 0.19762,0.525929 0.19762,0.927191 l 0,0.729569 0.69991,-0.09326 c 0.38496,-0.05129 0.84814,-0.138587 1.02929,-0.19399 0.18273,-0.05588 0.476,0.0068 0.6587,0.140875 0.30109,0.220887 0.31015,0.28865 0.10569,0.790145 -0.44184,1.083719 -0.37848,1.201637 0.6752,1.256629 0.74717,0.039 0.98261,0.11865 1.12233,0.379705 0.14988,0.28005 0.0874,0.412251 -0.4103,0.86812 -0.70984,0.650191 -0.7551,1.048563 -0.13421,1.181379 0.83993,0.179672 1.19397,0.393159 1.19397,0.719959 0,0.384094 -0.58773,0.836299 -1.08694,0.836299 -0.78396,0 -0.8817,0.760247 -0.1482,1.152803 0.99704,0.533604 0.49771,1.317489 -0.83924,1.317489 -0.47879,0 -0.91281,0.06842 -0.9645,0.152044 -0.0517,0.08362 0.0538,0.40249 0.23441,0.708592 0.30003,0.508521 0.3065,0.587777 0.0749,0.918417 -0.29782,0.425194 -0.68266,0.454395 -1.49812,0.113675 -0.71293,-0.29788 -1.04227,-0.113261 -1.04227,0.58426 0,0.797913 -0.1519,0.981421 -0.81235,0.981421 -0.44031,0 -0.72111,-0.115703 -0.9992,-0.411715 -0.52989,-0.564045 -0.75106,-0.519811 -1.23515,0.247029 -0.33084,0.524095 -0.5145,0.658744 -0.8985,0.658744 -0.31207,0 -0.57326,-0.12936 -0.73902,-0.366015 z m 1.21145,-0.583942 c 0.18491,-0.412226 0.8376,-0.86159 1.25143,-0.86159 0.0193,0 0.31735,0.224284 0.66229,0.498409 0.34494,0.274125 0.70715,0.472169 0.80491,0.440098 0.0978,-0.03207 0.21479,-0.384648 0.26008,-0.783505 0.10737,-0.945636 0.63015,-1.182148 1.7201,-0.778187 0.3969,0.147104 0.76512,0.223985 0.81826,0.170847 0.20668,-0.206677 0.0821,-0.530155 -0.19158,-0.497392 -0.15852,0.01898 -0.60579,-0.06852 -0.99394,-0.194439 -0.65208,-0.211535 -0.73973,-0.203671 -1.1528,0.10343 -0.31699,0.235664 -0.46194,0.507303 -0.49818,0.933585 -0.0281,0.330667 -0.0915,0.601212 -0.14092,0.601212 -0.0494,0 -0.30998,-0.185271 -0.57909,-0.411715 -0.26912,-0.226443 -0.69594,-0.411715 -0.94851,-0.411715 -0.53195,0 -1.25972,0.516493 -1.41438,1.003778 -0.10227,0.322244 -0.11636,0.3238 -0.33387,0.03688 -0.27628,-0.364461 -0.32179,-0.02358 -0.0617,0.462355 0.23232,0.434098 0.51234,0.324588 0.79792,-0.312047 z"
         style="fill:#ffffff;fill-opacity:1;fill-rule:evenodd;stroke:none;stroke-opacity:1" />
      <path
         transform="translate(0,992.36216)"
         inkscape:connector-curvature="0"
         id="path4281"
         d="m 122.37548,41.48209 0,-5.017533 -1.85272,-0.04657 -1.85272,-0.04657 -0.0487,-0.924726 -0.0487,-0.924726 0.86899,-0.115277 c 0.47795,-0.0634 2.77872,-0.06246 5.11283,0.0021 l 4.24383,0.117359 0,0.963815 0,0.963815 -1.81155,0 -1.81155,0 0,5.022927 0,5.022927 -1.39983,0 -1.39983,0 0,-5.017533 z"
         style="fill:#ffffff;fill-opacity:1;fill-rule:evenodd;stroke:none;stroke-opacity:1" />
      <path
         transform="translate(0,992.36216)"
         inkscape:connector-curvature="0"
         id="path4283"
         d="M 96.070216,24.839507 C 95.324922,19.878799 94.67058,15.775479 94.61612,15.721019 94.561659,15.666558 78.200592,15.591086 58.258192,15.553303 38.315792,15.51552 22.295718,15.428778 22.658028,15.360542 c 0.362309,-0.06824 4.253019,-0.204955 8.646022,-0.303822 4.393002,-0.09887 16.880328,-0.398136 27.749612,-0.665041 10.869285,-0.266906 22.986066,-0.561994 26.926182,-0.655751 3.940116,-0.09376 8.377443,-0.215211 9.860728,-0.269899 l 2.696882,-0.09943 -0.102189,1.703591 c -0.05621,0.936974 -0.254027,5.334919 -0.439605,9.77321 -0.185577,4.438291 -0.389827,8.282461 -0.45389,8.542601 -0.07957,0.323084 -0.545923,-2.385434 -1.471554,-8.546491 z"
         style="fill:#ffffff;fill-opacity:1;fill-rule:evenodd;stroke:none;stroke-opacity:1" />
      <path
         transform="translate(0,992.36216)"
         inkscape:connector-curvature="0"
         id="path4285"
         d="m 100.96628,27.076129 0,-6.41329 0.69992,-0.05064 0.69991,-0.05064 -0.0633,-2.758493 -0.0633,-2.758492 0.51614,0 0.51615,0 0,2.799664 0,2.799664 0.5764,0 0.5764,0 0,2.196548 c 0,1.208102 -0.0489,4.098343 -0.10875,6.422759 l -0.10874,4.226211 -1.62046,0 -1.62046,0 0,-6.41329 z"
         style="fill:#ffffff;fill-opacity:1;fill-rule:evenodd;stroke:none;stroke-opacity:1" />
      <path
         transform="translate(0,992.36216)"
         inkscape:connector-curvature="0"
         id="path4287"
         d="m 112.53548,31.883945 -3.17021,-0.0485 0.0177,-3.166652 0.0177,-3.166652 0.37016,2.762098 c 0.20359,1.519154 0.41715,2.80909 0.47459,2.866525 0.0574,0.05743 2.12468,0.24128 4.59388,0.408545 6.58647,0.446172 6.37741,0.477446 -2.30385,0.344635 z"
         style="fill:#ffffff;fill-opacity:1;fill-rule:evenodd;stroke:none;stroke-opacity:1" />
      <path
         transform="translate(0,992.36216)"
         inkscape:connector-curvature="0"
         id="path4289"
         d="m 139.57482,33.477596 c -0.59465,-0.621919 -2.77516,-1.709122 -4.10679,-2.047649 -1.87627,-0.476981 -4.00383,-0.625744 -7.41088,-0.518182 -1.81155,0.05719 -3.49752,0.150437 -3.74661,0.207214 -0.41464,0.09451 -0.45289,0.06241 -0.45289,-0.380135 0,-0.749113 -0.46476,-2.137446 -1.01477,-3.031332 -0.5274,-0.857124 -0.88312,-1.13491 -1.45332,-1.13491 -0.2181,0 -0.8665,-0.518846 -1.73021,-1.384509 -3.36822,-3.375812 -7.15522,-5.161792 -12.92905,-6.097444 l -1.56452,-0.253531 1.64686,0.07304 c 5.35187,0.237369 10.12395,2.273587 13.78112,5.880311 0.99399,0.980283 1.21674,1.123414 1.74861,1.12361 0.77066,2.8e-4 3.11251,0.412623 3.6562,0.643763 0.31129,0.132337 0.0442,0.150619 -1.09508,0.07495 -0.82874,-0.05505 -1.59049,-0.04836 -1.69277,0.01486 -0.12358,0.07637 0.015,0.388773 0.4131,0.931052 0.3295,0.448863 0.73164,1.165731 0.89364,1.593041 l 0.29456,0.776927 3.5999,0.104689 c 6.66075,0.193702 9.97331,1.018015 11.30027,2.812009 0.80042,1.082135 0.70757,1.495925 -0.13737,0.612231 z"
         style="fill:#ffffff;fill-opacity:1;fill-rule:evenodd;stroke:none;stroke-opacity:1" />
      <path
         transform="translate(0,992.36216)"
         inkscape:connector-curvature="0"
         id="path4291"
         d="M 82.686121,17.993246 C 56.35141,17.597831 49.620479,17.503583 35.997604,17.339504 c -8.24254,-0.09928 -15.134655,-0.243635 -15.31581,-0.320797 -0.191632,-0.08162 1.805602,-0.144784 4.775898,-0.151029 5.55725,-0.01168 42.253411,-0.276888 57.269601,-0.413887 l 9.345938,-0.08527 0,0.902543 c 0,0.881227 -0.01071,0.901916 -0.452887,0.876034 -0.249088,-0.01458 -4.269488,-0.08381 -8.934223,-0.153855 z"
         style="fill:#ffffff;fill-opacity:1;fill-rule:evenodd;stroke:none;stroke-opacity:1" />
      <path
         transform="translate(0,992.36216)"
         inkscape:connector-curvature="0"
         id="path4295"
         d="M 56.253998,20.124756 C 38.047947,19.864001 22.707434,19.594221 22.16397,19.525245 21.012546,19.379108 38.155121,19.209117 69.799432,19.052877 l 22.273799,-0.109974 0,0.850499 0,0.850499 -1.358661,-0.02252 C 89.967307,20.608992 74.460049,20.385512 56.253998,20.124756 Z"
         style="fill:#ffffff;fill-opacity:1;fill-rule:evenodd;stroke:none;stroke-opacity:1" />
      <path
         transform="translate(0,992.36216)"
         inkscape:connector-curvature="0"
         id="path4299"
         d="M 83.015494,22.50924 C 81.792699,22.487807 75.122911,22.390641 68.193742,22.293314 42.010311,21.925546 33.987733,21.80491 27.351583,21.679171 l -6.834475,-0.129496 9.057737,-0.100216 c 4.981756,-0.05512 21.081883,-0.1107 35.778061,-0.123514 l 26.720325,-0.0233 0,0.658744 0,0.658745 -3.417237,-0.03596 c -1.879481,-0.01978 -4.417706,-0.0535 -5.6405,-0.07493 z"
         style="fill:#ffffff;fill-opacity:1;fill-rule:evenodd;stroke:none;stroke-opacity:1" />
      <path
         transform="translate(0,992.36216)"
         inkscape:connector-curvature="0"
         id="path4303"
         d="M 82.686121,24.903696 C 72.154784,24.72702 29.295271,24.105163 26.034094,24.081721 24.182016,24.068408 23.684846,24.0267 24.222546,23.929747 24.824737,23.821165 77.265512,23.423503 88.903023,23.43927 l 3.170208,0.0043 0,0.823431 0,0.82343 -0.699916,-0.02637 c -0.384954,-0.0145 -4.294191,-0.08667 -8.687194,-0.160363 z"
         style="fill:#ffffff;fill-opacity:1;fill-rule:evenodd;stroke:none;stroke-opacity:1" />
      <path
         transform="translate(0,992.36216)"
         inkscape:connector-curvature="0"
         id="path4309"
         d="M 83.262523,31.88896 C 55.46543,31.475967 23.280354,31.018792 22.013007,31.018939 c -0.898225,1.03e-4 -1.595053,-0.0379 -1.548506,-0.08444 0.04655,-0.04655 9.933891,-0.154177 21.971875,-0.239176 12.037982,-0.085 28.130905,-0.204553 35.762048,-0.265674 l 13.874807,-0.111131 0,0.844365 0,0.844364 -2.923179,-0.03712 c -1.607748,-0.02042 -4.257136,-0.05694 -5.887529,-0.08116 z"
         style="fill:#ffffff;fill-opacity:1;fill-rule:evenodd;stroke:none;stroke-opacity:1" />
      <path
         transform="translate(0,992.36216)"
         inkscape:connector-curvature="0"
         id="path4311"
         d="M 89.520596,29.589831 C 88.524245,29.566812 82.002674,29.471963 75.028216,29.379057 24.564391,28.706832 20.295935,28.63277 20.495837,28.432868 c 0.07318,-0.07318 56.222046,-0.523093 67.007354,-0.536919 l 4.57004,-0.0059 0,0.905773 c 0,0.839894 -0.02695,0.90323 -0.370544,0.870798 -0.203799,-0.01924 -1.18574,-0.05381 -2.182091,-0.07683 z"
         style="fill:#ffffff;fill-opacity:1;fill-rule:evenodd;stroke:none;stroke-opacity:1" />
      <path
         transform="translate(0,992.36216)"
         inkscape:connector-curvature="0"
         id="path4313"
         d="M 86.062187,27.113157 C 56.141504,26.669566 26.363511,26.236442 24.304889,26.214892 l -2.634978,-0.02758 3.21138,-0.115098 c 1.766258,-0.0633 17.607005,-0.173349 35.201659,-0.244544 l 31.990281,-0.129445 0,0.766562 0,0.766563 -1.523347,-0.03712 c -0.837841,-0.02042 -2.857304,-0.0569 -4.487697,-0.08107 z"
         style="fill:#ffffff;fill-opacity:1;fill-rule:evenodd;stroke:none;stroke-opacity:1" />
    </g>
  </g>
</svg>
